<svg width="235" height="156" viewBox="0 0 235 156" fill="none" xmlns="http://www.w3.org/2000/svg">
<path d="M58.4512 47.5234L61.1445 49.6562L59.8525 50.7773L57.2002 48.6445L58.4512 47.5234ZM61.2129 43.791V44.2627C61.2129 45.0192 61.1104 45.6982 60.9053 46.2998C60.7048 46.9014 60.4154 47.4141 60.0371 47.8379C59.6589 48.2572 59.2122 48.5785 58.6973 48.8018C58.1823 49.0251 57.6104 49.1367 56.9814 49.1367C56.3571 49.1367 55.7852 49.0251 55.2656 48.8018C54.7461 48.5785 54.2972 48.2572 53.9189 47.8379C53.5407 47.4141 53.2467 46.9014 53.0371 46.2998C52.832 45.6982 52.7295 45.0192 52.7295 44.2627V43.791C52.7295 43.0299 52.832 42.3509 53.0371 41.7539C53.2467 41.1523 53.5384 40.6396 53.9121 40.2158C54.2858 39.792 54.7324 39.4684 55.252 39.2451C55.7715 39.0218 56.3434 38.9102 56.9678 38.9102C57.5967 38.9102 58.1686 39.0218 58.6836 39.2451C59.2031 39.4684 59.652 39.792 60.0303 40.2158C60.4085 40.6396 60.7002 41.1523 60.9053 41.7539C61.1104 42.3509 61.2129 43.0299 61.2129 43.791ZM59.1416 44.2627V43.7773C59.1416 43.2487 59.0915 42.7839 58.9912 42.3828C58.8955 41.9818 58.7542 41.6445 58.5674 41.3711C58.3851 41.0977 58.1595 40.8926 57.8906 40.7559C57.6217 40.6146 57.3141 40.5439 56.9678 40.5439C56.6214 40.5439 56.3138 40.6146 56.0449 40.7559C55.776 40.8926 55.5505 41.0977 55.3682 41.3711C55.1859 41.6445 55.0469 41.9818 54.9512 42.3828C54.8555 42.7839 54.8076 43.2487 54.8076 43.7773V44.2627C54.8076 44.7868 54.8555 45.2516 54.9512 45.6572C55.0469 46.0583 55.1859 46.3978 55.3682 46.6758C55.555 46.9492 55.7829 47.1566 56.0518 47.2979C56.3252 47.4391 56.6351 47.5098 56.9814 47.5098C57.3278 47.5098 57.6331 47.4391 57.8975 47.2979C58.1663 47.1566 58.3919 46.9492 58.5742 46.6758C58.7611 46.3978 58.9023 46.0583 58.998 45.6572C59.0938 45.2516 59.1416 44.7868 59.1416 44.2627ZM68.1924 39.0469H70.2363V45.623C70.2363 46.3887 70.0723 47.0335 69.7441 47.5576C69.4206 48.0817 68.9717 48.4759 68.3975 48.7402C67.8278 49.0046 67.1715 49.1367 66.4287 49.1367C65.6859 49.1367 65.0251 49.0046 64.4463 48.7402C63.8721 48.4759 63.4209 48.0817 63.0928 47.5576C62.7692 47.0335 62.6074 46.3887 62.6074 45.623V39.0469H64.6582V45.623C64.6582 46.0697 64.7288 46.4342 64.8701 46.7168C65.0114 46.9993 65.2142 47.2067 65.4785 47.3389C65.7474 47.471 66.0641 47.5371 66.4287 47.5371C66.8024 47.5371 67.1191 47.471 67.3789 47.3389C67.6432 47.2067 67.8438 46.9993 67.9805 46.7168C68.1217 46.4342 68.1924 46.0697 68.1924 45.623V39.0469ZM78.6035 47.4004V49H73.3057V47.4004H78.6035ZM73.9756 39.0469V49H71.9248V39.0469H73.9756ZM77.9131 43.1006V44.6592H73.3057V43.1006H77.9131ZM78.5967 39.0469V40.6533H73.3057V39.0469H78.5967ZM79.7998 39.0469H83.5117C84.2728 39.0469 84.9268 39.1608 85.4736 39.3887C86.0251 39.6165 86.4489 39.9538 86.7451 40.4004C87.0413 40.847 87.1895 41.3962 87.1895 42.0479C87.1895 42.5811 87.0983 43.0391 86.916 43.4219C86.7383 43.8001 86.4854 44.1169 86.1572 44.3721C85.8337 44.6227 85.4531 44.8232 85.0156 44.9736L84.3662 45.3154H81.1396L81.126 43.7158H83.5254C83.8854 43.7158 84.1839 43.652 84.4209 43.5244C84.6579 43.3968 84.8356 43.2191 84.9541 42.9912C85.0771 42.7633 85.1387 42.499 85.1387 42.1982C85.1387 41.8792 85.0794 41.6035 84.9609 41.3711C84.8424 41.1387 84.6624 40.9609 84.4209 40.8379C84.1794 40.7148 83.8763 40.6533 83.5117 40.6533H81.8506V49H79.7998V39.0469ZM85.3643 49L83.0947 44.5635L85.2617 44.5498L87.5586 48.9043V49H85.3643ZM96.9443 43.791V44.2627C96.9443 45.0192 96.8418 45.6982 96.6367 46.2998C96.4316 46.9014 96.1423 47.4141 95.7686 47.8379C95.3949 48.2572 94.9482 48.5785 94.4287 48.8018C93.9137 49.0251 93.3418 49.1367 92.7129 49.1367C92.0885 49.1367 91.5166 49.0251 90.9971 48.8018C90.4821 48.5785 90.0355 48.2572 89.6572 47.8379C89.279 47.4141 88.985 46.9014 88.7754 46.2998C88.5703 45.6982 88.4678 45.0192 88.4678 44.2627V43.791C88.4678 43.0299 88.5703 42.3509 88.7754 41.7539C88.9805 41.1523 89.2699 40.6396 89.6436 40.2158C90.0218 39.792 90.4684 39.4684 90.9834 39.2451C91.5029 39.0218 92.0749 38.9102 92.6992 38.9102C93.3281 38.9102 93.9001 39.0218 94.415 39.2451C94.9346 39.4684 95.3812 39.792 95.7549 40.2158C96.1331 40.6396 96.4248 41.1523 96.6299 41.7539C96.8395 42.3509 96.9443 43.0299 96.9443 43.791ZM94.873 44.2627V43.7773C94.873 43.2487 94.8252 42.7839 94.7295 42.3828C94.6338 41.9818 94.4925 41.6445 94.3057 41.3711C94.1188 41.0977 93.891 40.8926 93.6221 40.7559C93.3532 40.6146 93.0456 40.5439 92.6992 40.5439C92.3529 40.5439 92.0452 40.6146 91.7764 40.7559C91.512 40.8926 91.2865 41.0977 91.0996 41.3711C90.9173 41.6445 90.7783 41.9818 90.6826 42.3828C90.5869 42.7839 90.5391 43.2487 90.5391 43.7773V44.2627C90.5391 44.7868 90.5869 45.2516 90.6826 45.6572C90.7783 46.0583 90.9196 46.3978 91.1064 46.6758C91.2933 46.9492 91.5212 47.1566 91.79 47.2979C92.0589 47.4391 92.3665 47.5098 92.7129 47.5098C93.0592 47.5098 93.3669 47.4391 93.6357 47.2979C93.9046 47.1566 94.1302 46.9492 94.3125 46.6758C94.4948 46.3978 94.6338 46.0583 94.7295 45.6572C94.8252 45.2516 94.873 44.7868 94.873 44.2627ZM107.089 46.3955C107.089 46.2178 107.062 46.0583 107.007 45.917C106.957 45.7712 106.861 45.639 106.72 45.5205C106.578 45.3975 106.38 45.2767 106.125 45.1582C105.87 45.0397 105.539 44.9167 105.134 44.7891C104.683 44.6432 104.254 44.4792 103.849 44.2969C103.448 44.1146 103.092 43.9027 102.782 43.6611C102.477 43.415 102.235 43.1302 102.058 42.8066C101.884 42.4831 101.798 42.1071 101.798 41.6787C101.798 41.264 101.889 40.888 102.071 40.5508C102.254 40.209 102.509 39.9173 102.837 39.6758C103.165 39.4297 103.552 39.2406 103.999 39.1084C104.45 38.9762 104.945 38.9102 105.482 38.9102C106.216 38.9102 106.856 39.0423 107.403 39.3066C107.95 39.571 108.374 39.9333 108.675 40.3936C108.98 40.8538 109.133 41.3802 109.133 41.9727H107.096C107.096 41.681 107.034 41.4258 106.911 41.207C106.793 40.9837 106.61 40.8083 106.364 40.6807C106.123 40.5531 105.817 40.4893 105.448 40.4893C105.093 40.4893 104.797 40.5439 104.56 40.6533C104.323 40.7581 104.145 40.9017 104.026 41.084C103.908 41.2617 103.849 41.4622 103.849 41.6855C103.849 41.8542 103.89 42.0068 103.972 42.1436C104.058 42.2803 104.186 42.4079 104.354 42.5264C104.523 42.6449 104.73 42.7565 104.977 42.8613C105.223 42.9661 105.507 43.0687 105.831 43.1689C106.373 43.333 106.85 43.5176 107.26 43.7227C107.674 43.9277 108.021 44.1579 108.299 44.4131C108.577 44.6683 108.786 44.9577 108.928 45.2812C109.069 45.6048 109.14 45.9717 109.14 46.3818C109.14 46.8148 109.055 47.2021 108.887 47.5439C108.718 47.8857 108.474 48.1751 108.155 48.4121C107.836 48.6491 107.456 48.8291 107.014 48.9521C106.572 49.0752 106.077 49.1367 105.53 49.1367C105.038 49.1367 104.553 49.0729 104.074 48.9453C103.596 48.8132 103.16 48.6149 102.769 48.3506C102.381 48.0863 102.071 47.749 101.839 47.3389C101.606 46.9287 101.49 46.4434 101.49 45.8828H103.548C103.548 46.1927 103.596 46.4548 103.691 46.6689C103.787 46.8831 103.922 47.0563 104.095 47.1885C104.272 47.3206 104.482 47.4163 104.724 47.4756C104.97 47.5348 105.239 47.5645 105.53 47.5645C105.886 47.5645 106.177 47.5143 106.405 47.4141C106.638 47.3138 106.809 47.1748 106.918 46.9971C107.032 46.8193 107.089 46.6188 107.089 46.3955ZM114.581 40.749L111.874 49H109.693L113.392 39.0469H114.779L114.581 40.749ZM116.83 49L114.116 40.749L113.897 39.0469H115.299L119.018 49H116.83ZM116.707 45.2949V46.9014H111.45V45.2949H116.707ZM123.837 44.6318H121.28L121.267 43.2236H123.413C123.791 43.2236 124.101 43.1758 124.343 43.0801C124.584 42.9798 124.764 42.8363 124.883 42.6494C125.006 42.458 125.067 42.2256 125.067 41.9521C125.067 41.6423 125.008 41.3916 124.89 41.2002C124.776 41.0088 124.596 40.8698 124.35 40.7832C124.108 40.6966 123.796 40.6533 123.413 40.6533H121.991V49H119.94V39.0469H123.413C123.992 39.0469 124.509 39.1016 124.965 39.2109C125.425 39.3203 125.815 39.4867 126.134 39.71C126.453 39.9333 126.697 40.2158 126.865 40.5576C127.034 40.8949 127.118 41.2959 127.118 41.7607C127.118 42.1709 127.025 42.5492 126.838 42.8955C126.656 43.2419 126.366 43.5244 125.97 43.7432C125.578 43.9619 125.065 44.0827 124.432 44.1055L123.837 44.6318ZM123.748 49H120.72L121.52 47.4004H123.748C124.108 47.4004 124.402 47.3434 124.63 47.2295C124.858 47.111 125.026 46.9515 125.136 46.751C125.245 46.5505 125.3 46.3203 125.3 46.0605C125.3 45.7689 125.25 45.516 125.149 45.3018C125.054 45.0876 124.899 44.9235 124.685 44.8096C124.47 44.6911 124.188 44.6318 123.837 44.6318H121.861L121.875 43.2236H124.336L124.808 43.7773C125.414 43.7682 125.901 43.8753 126.271 44.0986C126.644 44.3174 126.915 44.6022 127.084 44.9531C127.257 45.304 127.344 45.68 127.344 46.0811C127.344 46.7191 127.205 47.2568 126.927 47.6943C126.649 48.1273 126.241 48.4531 125.703 48.6719C125.17 48.8906 124.518 49 123.748 49ZM135.561 47.4004V49H130.263V47.4004H135.561ZM130.933 39.0469V49H128.882V39.0469H130.933ZM134.87 43.1006V44.6592H130.263V43.1006H134.87ZM135.554 39.0469V40.6533H130.263V39.0469H135.554ZM136.757 39.0469H140.469C141.23 39.0469 141.884 39.1608 142.431 39.3887C142.982 39.6165 143.406 39.9538 143.702 40.4004C143.998 40.847 144.146 41.3962 144.146 42.0479C144.146 42.5811 144.055 43.0391 143.873 43.4219C143.695 43.8001 143.442 44.1169 143.114 44.3721C142.791 44.6227 142.41 44.8232 141.973 44.9736L141.323 45.3154H138.097L138.083 43.7158H140.482C140.842 43.7158 141.141 43.652 141.378 43.5244C141.615 43.3968 141.793 43.2191 141.911 42.9912C142.034 42.7633 142.096 42.499 142.096 42.1982C142.096 41.8792 142.036 41.6035 141.918 41.3711C141.799 41.1387 141.619 40.9609 141.378 40.8379C141.136 40.7148 140.833 40.6533 140.469 40.6533H138.808V49H136.757V39.0469ZM142.321 49L140.052 44.5635L142.219 44.5498L144.516 48.9043V49H142.321ZM150.148 39.0469H151.885L154.441 46.3545L156.998 39.0469H158.734L155.139 49H153.744L150.148 39.0469ZM149.212 39.0469H150.941L151.256 46.1699V49H149.212V39.0469ZM157.941 39.0469H159.678V49H157.627V46.1699L157.941 39.0469ZM165.646 40.749L162.938 49H160.758L164.456 39.0469H165.844L165.646 40.749ZM167.895 49L165.181 40.749L164.962 39.0469H166.363L170.082 49H167.895ZM167.771 45.2949V46.9014H162.515V45.2949H167.771ZM173.186 39.0469V49H171.142V39.0469H173.186ZM180.288 46.3955C180.288 46.2178 180.261 46.0583 180.206 45.917C180.156 45.7712 180.06 45.639 179.919 45.5205C179.778 45.3975 179.579 45.2767 179.324 45.1582C179.069 45.0397 178.739 44.9167 178.333 44.7891C177.882 44.6432 177.453 44.4792 177.048 44.2969C176.647 44.1146 176.291 43.9027 175.981 43.6611C175.676 43.415 175.435 43.1302 175.257 42.8066C175.084 42.4831 174.997 42.1071 174.997 41.6787C174.997 41.264 175.088 40.888 175.271 40.5508C175.453 40.209 175.708 39.9173 176.036 39.6758C176.364 39.4297 176.752 39.2406 177.198 39.1084C177.649 38.9762 178.144 38.9102 178.682 38.9102C179.415 38.9102 180.056 39.0423 180.603 39.3066C181.149 39.571 181.573 39.9333 181.874 40.3936C182.179 40.8538 182.332 41.3802 182.332 41.9727H180.295C180.295 41.681 180.233 41.4258 180.11 41.207C179.992 40.9837 179.81 40.8083 179.563 40.6807C179.322 40.5531 179.017 40.4893 178.647 40.4893C178.292 40.4893 177.996 40.5439 177.759 40.6533C177.522 40.7581 177.344 40.9017 177.226 41.084C177.107 41.2617 177.048 41.4622 177.048 41.6855C177.048 41.8542 177.089 42.0068 177.171 42.1436C177.257 42.2803 177.385 42.4079 177.554 42.5264C177.722 42.6449 177.93 42.7565 178.176 42.8613C178.422 42.9661 178.707 43.0687 179.03 43.1689C179.573 43.333 180.049 43.5176 180.459 43.7227C180.874 43.9277 181.22 44.1579 181.498 44.4131C181.776 44.6683 181.986 44.9577 182.127 45.2812C182.268 45.6048 182.339 45.9717 182.339 46.3818C182.339 46.8148 182.255 47.2021 182.086 47.5439C181.917 47.8857 181.674 48.1751 181.354 48.4121C181.035 48.6491 180.655 48.8291 180.213 48.9521C179.771 49.0752 179.276 49.1367 178.729 49.1367C178.237 49.1367 177.752 49.0729 177.273 48.9453C176.795 48.8132 176.36 48.6149 175.968 48.3506C175.58 48.0863 175.271 47.749 175.038 47.3389C174.806 46.9287 174.689 46.4434 174.689 45.8828H176.747C176.747 46.1927 176.795 46.4548 176.891 46.6689C176.986 46.8831 177.121 47.0563 177.294 47.1885C177.472 47.3206 177.681 47.4163 177.923 47.4756C178.169 47.5348 178.438 47.5645 178.729 47.5645C179.085 47.5645 179.377 47.5143 179.604 47.4141C179.837 47.3138 180.008 47.1748 180.117 46.9971C180.231 46.8193 180.288 46.6188 180.288 46.3955Z" fill="white"/>
<path d="M25 21H210V19H25V21ZM214 25V63H216V25H214ZM210 67H25V69H210V67ZM21 63V25H19V63H21ZM25 67C22.7909 67 21 65.2091 21 63H19C19 66.3137 21.6863 69 25 69V67ZM214 63C214 65.2091 212.209 67 210 67V69C213.314 69 216 66.3137 216 63H214ZM210 21C212.209 21 214 22.7909 214 25H216C216 21.6863 213.314 19 210 19V21ZM25 19C21.6863 19 19 21.6863 19 25H21C21 22.7909 22.7909 21 25 21V19Z" fill="white"/>
<path d="M20 93C20 90.2386 22.2386 88 25 88H210C212.761 88 215 90.2386 215 93V131C215 133.761 212.761 136 210 136H25C22.2386 136 20 133.761 20 131V93Z" fill="white"/>
<path d="M58.4512 115.523L61.1445 117.656L59.8525 118.777L57.2002 116.645L58.4512 115.523ZM61.2129 111.791V112.263C61.2129 113.019 61.1104 113.698 60.9053 114.3C60.7048 114.901 60.4154 115.414 60.0371 115.838C59.6589 116.257 59.2122 116.578 58.6973 116.802C58.1823 117.025 57.6104 117.137 56.9814 117.137C56.3571 117.137 55.7852 117.025 55.2656 116.802C54.7461 116.578 54.2972 116.257 53.9189 115.838C53.5407 115.414 53.2467 114.901 53.0371 114.3C52.832 113.698 52.7295 113.019 52.7295 112.263V111.791C52.7295 111.03 52.832 110.351 53.0371 109.754C53.2467 109.152 53.5384 108.64 53.9121 108.216C54.2858 107.792 54.7324 107.468 55.252 107.245C55.7715 107.022 56.3434 106.91 56.9678 106.91C57.5967 106.91 58.1686 107.022 58.6836 107.245C59.2031 107.468 59.652 107.792 60.0303 108.216C60.4085 108.64 60.7002 109.152 60.9053 109.754C61.1104 110.351 61.2129 111.03 61.2129 111.791ZM59.1416 112.263V111.777C59.1416 111.249 59.0915 110.784 58.9912 110.383C58.8955 109.982 58.7542 109.645 58.5674 109.371C58.3851 109.098 58.1595 108.893 57.8906 108.756C57.6217 108.615 57.3141 108.544 56.9678 108.544C56.6214 108.544 56.3138 108.615 56.0449 108.756C55.776 108.893 55.5505 109.098 55.3682 109.371C55.1859 109.645 55.0469 109.982 54.9512 110.383C54.8555 110.784 54.8076 111.249 54.8076 111.777V112.263C54.8076 112.787 54.8555 113.252 54.9512 113.657C55.0469 114.058 55.1859 114.398 55.3682 114.676C55.555 114.949 55.7829 115.157 56.0518 115.298C56.3252 115.439 56.6351 115.51 56.9814 115.51C57.3278 115.51 57.6331 115.439 57.8975 115.298C58.1663 115.157 58.3919 114.949 58.5742 114.676C58.7611 114.398 58.9023 114.058 58.998 113.657C59.0938 113.252 59.1416 112.787 59.1416 112.263ZM68.1924 107.047H70.2363V113.623C70.2363 114.389 70.0723 115.034 69.7441 115.558C69.4206 116.082 68.9717 116.476 68.3975 116.74C67.8278 117.005 67.1715 117.137 66.4287 117.137C65.6859 117.137 65.0251 117.005 64.4463 116.74C63.8721 116.476 63.4209 116.082 63.0928 115.558C62.7692 115.034 62.6074 114.389 62.6074 113.623V107.047H64.6582V113.623C64.6582 114.07 64.7288 114.434 64.8701 114.717C65.0114 114.999 65.2142 115.207 65.4785 115.339C65.7474 115.471 66.0641 115.537 66.4287 115.537C66.8024 115.537 67.1191 115.471 67.3789 115.339C67.6432 115.207 67.8438 114.999 67.9805 114.717C68.1217 114.434 68.1924 114.07 68.1924 113.623V107.047ZM78.6035 115.4V117H73.3057V115.4H78.6035ZM73.9756 107.047V117H71.9248V107.047H73.9756ZM77.9131 111.101V112.659H73.3057V111.101H77.9131ZM78.5967 107.047V108.653H73.3057V107.047H78.5967ZM79.7998 107.047H83.5117C84.2728 107.047 84.9268 107.161 85.4736 107.389C86.0251 107.617 86.4489 107.954 86.7451 108.4C87.0413 108.847 87.1895 109.396 87.1895 110.048C87.1895 110.581 87.0983 111.039 86.916 111.422C86.7383 111.8 86.4854 112.117 86.1572 112.372C85.8337 112.623 85.4531 112.823 85.0156 112.974L84.3662 113.315H81.1396L81.126 111.716H83.5254C83.8854 111.716 84.1839 111.652 84.4209 111.524C84.6579 111.397 84.8356 111.219 84.9541 110.991C85.0771 110.763 85.1387 110.499 85.1387 110.198C85.1387 109.879 85.0794 109.604 84.9609 109.371C84.8424 109.139 84.6624 108.961 84.4209 108.838C84.1794 108.715 83.8763 108.653 83.5117 108.653H81.8506V117H79.7998V107.047ZM85.3643 117L83.0947 112.563L85.2617 112.55L87.5586 116.904V117H85.3643ZM96.9443 111.791V112.263C96.9443 113.019 96.8418 113.698 96.6367 114.3C96.4316 114.901 96.1423 115.414 95.7686 115.838C95.3949 116.257 94.9482 116.578 94.4287 116.802C93.9137 117.025 93.3418 117.137 92.7129 117.137C92.0885 117.137 91.5166 117.025 90.9971 116.802C90.4821 116.578 90.0355 116.257 89.6572 115.838C89.279 115.414 88.985 114.901 88.7754 114.3C88.5703 113.698 88.4678 113.019 88.4678 112.263V111.791C88.4678 111.03 88.5703 110.351 88.7754 109.754C88.9805 109.152 89.2699 108.64 89.6436 108.216C90.0218 107.792 90.4684 107.468 90.9834 107.245C91.5029 107.022 92.0749 106.91 92.6992 106.91C93.3281 106.91 93.9001 107.022 94.415 107.245C94.9346 107.468 95.3812 107.792 95.7549 108.216C96.1331 108.64 96.4248 109.152 96.6299 109.754C96.8395 110.351 96.9443 111.03 96.9443 111.791ZM94.873 112.263V111.777C94.873 111.249 94.8252 110.784 94.7295 110.383C94.6338 109.982 94.4925 109.645 94.3057 109.371C94.1188 109.098 93.891 108.893 93.6221 108.756C93.3532 108.615 93.0456 108.544 92.6992 108.544C92.3529 108.544 92.0452 108.615 91.7764 108.756C91.512 108.893 91.2865 109.098 91.0996 109.371C90.9173 109.645 90.7783 109.982 90.6826 110.383C90.5869 110.784 90.5391 111.249 90.5391 111.777V112.263C90.5391 112.787 90.5869 113.252 90.6826 113.657C90.7783 114.058 90.9196 114.398 91.1064 114.676C91.2933 114.949 91.5212 115.157 91.79 115.298C92.0589 115.439 92.3665 115.51 92.7129 115.51C93.0592 115.51 93.3669 115.439 93.6357 115.298C93.9046 115.157 94.1302 114.949 94.3125 114.676C94.4948 114.398 94.6338 114.058 94.7295 113.657C94.8252 113.252 94.873 112.787 94.873 112.263ZM107.089 114.396C107.089 114.218 107.062 114.058 107.007 113.917C106.957 113.771 106.861 113.639 106.72 113.521C106.578 113.397 106.38 113.277 106.125 113.158C105.87 113.04 105.539 112.917 105.134 112.789C104.683 112.643 104.254 112.479 103.849 112.297C103.448 112.115 103.092 111.903 102.782 111.661C102.477 111.415 102.235 111.13 102.058 110.807C101.884 110.483 101.798 110.107 101.798 109.679C101.798 109.264 101.889 108.888 102.071 108.551C102.254 108.209 102.509 107.917 102.837 107.676C103.165 107.43 103.552 107.241 103.999 107.108C104.45 106.976 104.945 106.91 105.482 106.91C106.216 106.91 106.856 107.042 107.403 107.307C107.95 107.571 108.374 107.933 108.675 108.394C108.98 108.854 109.133 109.38 109.133 109.973H107.096C107.096 109.681 107.034 109.426 106.911 109.207C106.793 108.984 106.61 108.808 106.364 108.681C106.123 108.553 105.817 108.489 105.448 108.489C105.093 108.489 104.797 108.544 104.56 108.653C104.323 108.758 104.145 108.902 104.026 109.084C103.908 109.262 103.849 109.462 103.849 109.686C103.849 109.854 103.89 110.007 103.972 110.144C104.058 110.28 104.186 110.408 104.354 110.526C104.523 110.645 104.73 110.757 104.977 110.861C105.223 110.966 105.507 111.069 105.831 111.169C106.373 111.333 106.85 111.518 107.26 111.723C107.674 111.928 108.021 112.158 108.299 112.413C108.577 112.668 108.786 112.958 108.928 113.281C109.069 113.605 109.14 113.972 109.14 114.382C109.14 114.815 109.055 115.202 108.887 115.544C108.718 115.886 108.474 116.175 108.155 116.412C107.836 116.649 107.456 116.829 107.014 116.952C106.572 117.075 106.077 117.137 105.53 117.137C105.038 117.137 104.553 117.073 104.074 116.945C103.596 116.813 103.16 116.615 102.769 116.351C102.381 116.086 102.071 115.749 101.839 115.339C101.606 114.929 101.49 114.443 101.49 113.883H103.548C103.548 114.193 103.596 114.455 103.691 114.669C103.787 114.883 103.922 115.056 104.095 115.188C104.272 115.321 104.482 115.416 104.724 115.476C104.97 115.535 105.239 115.564 105.53 115.564C105.886 115.564 106.177 115.514 106.405 115.414C106.638 115.314 106.809 115.175 106.918 114.997C107.032 114.819 107.089 114.619 107.089 114.396ZM114.581 108.749L111.874 117H109.693L113.392 107.047H114.779L114.581 108.749ZM116.83 117L114.116 108.749L113.897 107.047H115.299L119.018 117H116.83ZM116.707 113.295V114.901H111.45V113.295H116.707ZM123.837 112.632H121.28L121.267 111.224H123.413C123.791 111.224 124.101 111.176 124.343 111.08C124.584 110.98 124.764 110.836 124.883 110.649C125.006 110.458 125.067 110.226 125.067 109.952C125.067 109.642 125.008 109.392 124.89 109.2C124.776 109.009 124.596 108.87 124.35 108.783C124.108 108.697 123.796 108.653 123.413 108.653H121.991V117H119.94V107.047H123.413C123.992 107.047 124.509 107.102 124.965 107.211C125.425 107.32 125.815 107.487 126.134 107.71C126.453 107.933 126.697 108.216 126.865 108.558C127.034 108.895 127.118 109.296 127.118 109.761C127.118 110.171 127.025 110.549 126.838 110.896C126.656 111.242 126.366 111.524 125.97 111.743C125.578 111.962 125.065 112.083 124.432 112.105L123.837 112.632ZM123.748 117H120.72L121.52 115.4H123.748C124.108 115.4 124.402 115.343 124.63 115.229C124.858 115.111 125.026 114.951 125.136 114.751C125.245 114.55 125.3 114.32 125.3 114.061C125.3 113.769 125.25 113.516 125.149 113.302C125.054 113.088 124.899 112.924 124.685 112.81C124.47 112.691 124.188 112.632 123.837 112.632H121.861L121.875 111.224H124.336L124.808 111.777C125.414 111.768 125.901 111.875 126.271 112.099C126.644 112.317 126.915 112.602 127.084 112.953C127.257 113.304 127.344 113.68 127.344 114.081C127.344 114.719 127.205 115.257 126.927 115.694C126.649 116.127 126.241 116.453 125.703 116.672C125.17 116.891 124.518 117 123.748 117ZM135.561 115.4V117H130.263V115.4H135.561ZM130.933 107.047V117H128.882V107.047H130.933ZM134.87 111.101V112.659H130.263V111.101H134.87ZM135.554 107.047V108.653H130.263V107.047H135.554ZM136.757 107.047H140.469C141.23 107.047 141.884 107.161 142.431 107.389C142.982 107.617 143.406 107.954 143.702 108.4C143.998 108.847 144.146 109.396 144.146 110.048C144.146 110.581 144.055 111.039 143.873 111.422C143.695 111.8 143.442 112.117 143.114 112.372C142.791 112.623 142.41 112.823 141.973 112.974L141.323 113.315H138.097L138.083 111.716H140.482C140.842 111.716 141.141 111.652 141.378 111.524C141.615 111.397 141.793 111.219 141.911 110.991C142.034 110.763 142.096 110.499 142.096 110.198C142.096 109.879 142.036 109.604 141.918 109.371C141.799 109.139 141.619 108.961 141.378 108.838C141.136 108.715 140.833 108.653 140.469 108.653H138.808V117H136.757V107.047ZM142.321 117L140.052 112.563L142.219 112.55L144.516 116.904V117H142.321ZM150.148 107.047H151.885L154.441 114.354L156.998 107.047H158.734L155.139 117H153.744L150.148 107.047ZM149.212 107.047H150.941L151.256 114.17V117H149.212V107.047ZM157.941 107.047H159.678V117H157.627V114.17L157.941 107.047ZM165.646 108.749L162.938 117H160.758L164.456 107.047H165.844L165.646 108.749ZM167.895 117L165.181 108.749L164.962 107.047H166.363L170.082 117H167.895ZM167.771 113.295V114.901H162.515V113.295H167.771ZM173.186 107.047V117H171.142V107.047H173.186ZM180.288 114.396C180.288 114.218 180.261 114.058 180.206 113.917C180.156 113.771 180.06 113.639 179.919 113.521C179.778 113.397 179.579 113.277 179.324 113.158C179.069 113.04 178.739 112.917 178.333 112.789C177.882 112.643 177.453 112.479 177.048 112.297C176.647 112.115 176.291 111.903 175.981 111.661C175.676 111.415 175.435 111.13 175.257 110.807C175.084 110.483 174.997 110.107 174.997 109.679C174.997 109.264 175.088 108.888 175.271 108.551C175.453 108.209 175.708 107.917 176.036 107.676C176.364 107.43 176.752 107.241 177.198 107.108C177.649 106.976 178.144 106.91 178.682 106.91C179.415 106.91 180.056 107.042 180.603 107.307C181.149 107.571 181.573 107.933 181.874 108.394C182.179 108.854 182.332 109.38 182.332 109.973H180.295C180.295 109.681 180.233 109.426 180.11 109.207C179.992 108.984 179.81 108.808 179.563 108.681C179.322 108.553 179.017 108.489 178.647 108.489C178.292 108.489 177.996 108.544 177.759 108.653C177.522 108.758 177.344 108.902 177.226 109.084C177.107 109.262 177.048 109.462 177.048 109.686C177.048 109.854 177.089 110.007 177.171 110.144C177.257 110.28 177.385 110.408 177.554 110.526C177.722 110.645 177.93 110.757 178.176 110.861C178.422 110.966 178.707 111.069 179.03 111.169C179.573 111.333 180.049 111.518 180.459 111.723C180.874 111.928 181.22 112.158 181.498 112.413C181.776 112.668 181.986 112.958 182.127 113.281C182.268 113.605 182.339 113.972 182.339 114.382C182.339 114.815 182.255 115.202 182.086 115.544C181.917 115.886 181.674 116.175 181.354 116.412C181.035 116.649 180.655 116.829 180.213 116.952C179.771 117.075 179.276 117.137 178.729 117.137C178.237 117.137 177.752 117.073 177.273 116.945C176.795 116.813 176.36 116.615 175.968 116.351C175.58 116.086 175.271 115.749 175.038 115.339C174.806 114.929 174.689 114.443 174.689 113.883H176.747C176.747 114.193 176.795 114.455 176.891 114.669C176.986 114.883 177.121 115.056 177.294 115.188C177.472 115.321 177.681 115.416 177.923 115.476C178.169 115.535 178.438 115.564 178.729 115.564C179.085 115.564 179.377 115.514 179.604 115.414C179.837 115.314 180.008 115.175 180.117 114.997C180.231 114.819 180.288 114.619 180.288 114.396Z" fill="#02799D"/>
<path d="M25 89H210V87H25V89ZM214 93V131H216V93H214ZM210 135H25V137H210V135ZM21 131V93H19V131H21ZM25 135C22.7909 135 21 133.209 21 131H19C19 134.314 21.6863 137 25 137V135ZM214 131C214 133.209 212.209 135 210 135V137C213.314 137 216 134.314 216 131H214ZM210 89C212.209 89 214 90.7909 214 93H216C216 89.6863 213.314 87 210 87V89ZM25 87C21.6863 87 19 89.6863 19 93H21C21 90.7909 22.7909 89 25 89V87Z" fill="white"/>
<rect x="0.5" y="0.5" width="234" height="155" rx="4.5" stroke="#7B61FF" stroke-dasharray="10 5"/>
</svg>
